{"title":"Dom Hemingway 2013 BluRay.816p.5.1.x264 . NVEE","uid":9910010,"size":1907238032,"categoryP":"video","categoryS":"hd___movies","magnet":"?xt=urn:btih:034333f24a5914523a3af215bb9f8ea9b6f35d27&amp;dn=Dom+Hemingway+2013+BluRay.816p.5.1.x264+.+NVEE&amp;tr=udp%3A%2F%2Ftracker.openbittorrent.com%3A80&amp;tr=udp%3A%2F%2Fopen.demonii.com%3A1337&amp;tr=udp%3A%2F%2Ftracker.coppersurfer.tk%3A6969&amp;tr=udp%3A%2F%2Fexodus.desync.com%3A6969","seeders":1,"leechers":0,"uploader":".NVEE","files":-1,"time":1396877014,"description":"\n\nQuick note :\nIf you require a torrent release I have posted in the past, not seeding,...\nPlease do not hesitate to inform me in any means you find fit to do so.\nTorrent requests also &quot;Always Welcome.&quot;\n\n\nFULL_INFOs\n\n99.99% --- SYNCED GUARANTEED \n\n&quot;Totally scrutinized / analyzed to be a verified torrent.&quot;\n___________________________________________\n\nSource : Blu-ray ~ 1080p\n\n\n\nSpoken Language : English\n\nAudio : 6 ~ Channels Only\n\n\nSubs Info :\n\nFormat : Timed Text\nCodec ID : tx3g\nDuration : 1h 29mn\nBit rate mode : Variable\nBit rate : 67 bps\nStream size : 43.8 KiB (0%)\nTitle : SDH\nLanguage : English\n\nFormat : Timed Text\nCodec ID : tx3g\nDuration : 1h 29mn\nBit rate mode : Variable\nBit rate : 62 bps\nStream size : 40.7 KiB (0%)\nLanguage : English\n\nFormat : Timed Text\nCodec ID : tx3g\nDuration : 1h 29mn\nBit rate mode : Variable\nBit rate : 68 bps\nStream size : 44.1 KiB (0%)\nLanguage : Romanian\n\nFormat : Timed Text\nCodec ID : tx3g\nDuration : 1h 29mn\nBit rate mode : Variable\nBit rate : 68 bps\nStream size : 44.4 KiB (0%)\nLanguage : Spanish\n\nAll .srt &amp; .idx subs can be turned On/Off\n_____________________________________\n---------------------------------------------------------------------------------\n\nGeneral Metadata\n\nComplete name : Dom Hemingway 2013.816p.BluRay.5.1.x264 . NVEE.mp4\nFormat : MPEG-4\nFormat profile : Base Media\nCodec ID : isom\nFile size : 1.78 GiB\nDuration : 1h 33mn\nOverall bit rate mode : Variable\nOverall bit rate : 2 712 Kbps\nEncoded date : UTC 2014-04-07 04:24:03\nTagged date : UTC 2014-04-07 04:24:03\n\n\nVideo\n\nID : 1\nFormat : AVC\nFormat/Info : Advanced Video Codec\nFormat profile : &lt;a class=&quot;__cf_email__&quot; href=&quot;/cdn-cgi/l/email-protection&quot; data-cfemail=&quot;763e1f111e363a425846&quot;&gt;[email&amp;#160;protected]&lt;/a&gt;&lt;script cf-hash='f9e31' type=&quot;text/javascript&quot;&gt;\n/* &lt;![CDATA[ */!function(){try{var t=&quot;currentScript&quot;in document?document.currentScript:function(){for(var t=document.getElementsByTagName(&quot;script&quot;),e=t.length;e--;)if(t[e].getAttribute(&quot;cf-hash&quot;))return t[e]}();if(t&amp;&amp;t.previousSibling){var e,r,n,i,c=t.previousSibling,a=c.getAttribute(&quot;data-cfemail&quot;);if(a){for(e=&quot;&quot;,r=parseInt(a.substr(0,2),16),n=2;a.length-n;n+=2)i=parseInt(a.substr(n,2),16)^r,e+=String.fromCharCode(i);e=document.createTextNode(e),c.parentNode.replaceChild(e,c)}}}catch(u){}}();/* ]]&gt; */&lt;/script&gt;\nFormat settings, CABAC : Yes\nFormat settings, ReFrames : 3 frames\nCodec ID : avc1\nCodec ID/Info : Advanced Video Coding\nDuration : 1h 33mn\nBit rate : 2 261 Kbps\nMaximum bit rate : 12.2 Mbps\nWidth : 1 920 pixels\nHeight : 816 pixels\nDisplay aspect ratio : 2.35:1\nFrame rate mode : Constant\nFrame rate : 24.000 fps\nColor space : YUV\nChroma subsampling : 4:2:0\nBit depth : 8 bits\nScan type : Progressive\nBits/(Pixel*Frame) : 0.060\nStream size : 1.48 GiB (83%)\nWriting library : x264 core 138 r2358 9e941d1\nEncoded from Physical Blu-ray\n\n\nAudio\n\nID : 2\nFormat : AC-3\nFormat/Info : Audio Coding 3\nMode extension : CM (complete main)\nFormat settings, Endianness : Big\nCodec ID : ac-3\nDuration : 1h 33mn\nBit rate mode : Constant\nBit rate : 448 Kbps\nChannel(s) : 6 channels\nChannel positions : Front: L C R, Side: L R, LFE\nSampling rate : 48.0 KHz\nBit depth : 16 bits\nCompression mode : Lossy\nStream size : 301 MiB (17%)\nLanguage : English\nEncoded date : UTC 2014-04-07 04:27:38\nTagged date : UTC 2014-04-07 04:28:43\nEncoded from Physical Blu-ray 6 Channel audio &quot;Always&quot;.\n\n\nEnj0y !","torrent":{"xt":"urn:btih:034333f24a5914523a3af215bb9f8ea9b6f35d27","amp;dn":"Dom+Hemingway+2013+BluRay.816p.5.1.x264+.+NVEE","amp;tr":["udp%3A%2F%2Ftracker.openbittorrent.com%3A80","udp%3A%2F%2Fopen.demonii.com%3A1337","udp%3A%2F%2Ftracker.coppersurfer.tk%3A6969","udp%3A%2F%2Fexodus.desync.com%3A6969"],"infoHash":"034333f24a5914523a3af215bb9f8ea9b6f35d27","infoHashBuffer":{"type":"Buffer","data":[3,67,51,242,74,89,20,82,58,58,242,21,187,159,142,169,182,243,93,39]},"announce":[],"urlList":[]}}